<svg width="15" height="16" viewBox="0 0 15 16" fill="none" xmlns="http://www.w3.org/2000/svg">
<path d="M14.0625 14.0625H0.9375C0.419733 14.0625 0 14.4822 0 15C0 15.5178 0.419733 15.9375 0.9375 15.9375H14.0625C14.5803 15.9375 15 15.5178 15 15C15 14.4822 14.5803 14.0625 14.0625 14.0625Z" fill="#00052F"/>
<path d="M0 13.125V15C0 15.5178 0.419733 15.9375 0.9375 15.9375C1.45527 15.9375 1.875 15.5178 1.875 15V13.125C1.875 12.6072 1.45527 12.1875 0.9375 12.1875C0.419733 12.1875 0 12.6072 0 13.125Z" fill="#00052F"/>
<path d="M13.125 13.125V15C13.125 15.5178 13.5447 15.9375 14.0625 15.9375C14.5803 15.9375 15 15.5178 15 15V13.125C15 12.6072 14.5803 12.1875 14.0625 12.1875C13.5447 12.1875 13.125 12.6072 13.125 13.125Z" fill="#00052F"/>
<path d="M7.49937 11.25C7.30501 11.2515 7.115 11.1925 6.95562 11.0813L3.20562 8.4375C3.00351 8.29413 2.86638 8.07656 2.82422 7.83237C2.78206 7.58818 2.83829 7.33723 2.98062 7.13438C3.05167 7.03299 3.1421 6.94667 3.24669 6.88042C3.35128 6.81416 3.46796 6.76928 3.58998 6.74836C3.71201 6.72744 3.83698 6.7309 3.95766 6.75853C4.07835 6.78617 4.19236 6.83744 4.29312 6.90938L7.49937 9.15L10.6869 6.75C10.8858 6.60082 11.1358 6.53676 11.382 6.57193C11.6281 6.60709 11.8502 6.73859 11.9994 6.9375C12.1486 7.13642 12.2126 7.38644 12.1775 7.63259C12.1423 7.87873 12.0108 8.10082 11.8119 8.25L8.06187 11.0625C7.8996 11.1842 7.70222 11.25 7.49937 11.25Z" fill="#00052F"/>
<path d="M7.5 9.375C7.25136 9.375 7.0129 9.27623 6.83709 9.10041C6.66127 8.9246 6.5625 8.68614 6.5625 8.4375V0.9375C6.5625 0.688859 6.66127 0.450403 6.83709 0.274587C7.0129 0.098772 7.25136 0 7.5 0C7.74864 0 7.9871 0.098772 8.16291 0.274587C8.33873 0.450403 8.4375 0.688859 8.4375 0.9375V8.4375C8.4375 8.68614 8.33873 8.9246 8.16291 9.10041C7.9871 9.27623 7.74864 9.375 7.5 9.375Z" fill="#00052F"/>
</svg>
