<svg width="26" height="25" viewBox="0 0 26 25" fill="none" xmlns="http://www.w3.org/2000/svg">
<g clip-path="url(#clip0_32_131)">
<path d="M12.8001 0C5.73173 0 0 5.73067 0 12.8001C0 18.4555 3.66762 23.2536 8.75349 24.9461C9.3932 25.0646 9.62806 24.6684 9.62806 24.3303C9.62806 24.0251 9.61619 23.0168 9.61068 21.9472C6.04968 22.7215 5.29826 20.437 5.29826 20.437C4.716 18.9575 3.87704 18.5641 3.87704 18.5641C2.71569 17.7696 3.96458 17.7859 3.96458 17.7859C5.24993 17.8762 5.92674 19.105 5.92674 19.105C7.06838 21.0618 8.92116 20.4961 9.65159 20.169C9.76647 19.3417 10.0982 18.7771 10.4643 18.4574C7.62118 18.1338 4.63248 17.0362 4.63248 12.1316C4.63248 10.7341 5.13251 9.59224 5.95132 8.69584C5.81842 8.37344 5.38029 7.07156 6.07532 5.30844C6.07532 5.30844 7.15019 4.96442 9.59626 6.6205C10.6173 6.33689 11.7123 6.19466 12.8001 6.18978C13.8879 6.19466 14.9838 6.33689 16.0067 6.6205C18.4498 4.96442 19.5232 5.30844 19.5232 5.30844C20.2199 7.07156 19.7816 8.37344 19.6487 8.69584C20.4694 9.59224 20.966 10.7341 20.966 12.1316C20.966 17.0479 17.9716 18.1304 15.1213 18.4473C15.5804 18.8445 15.9895 19.6235 15.9895 20.8177C15.9895 22.5303 15.9747 23.9087 15.9747 24.3303C15.9747 24.671 16.2051 25.0701 16.8539 24.9444C21.937 23.2499 25.6 18.4536 25.6 12.8001C25.6 5.73067 19.8691 0 12.8001 0ZM4.79406 18.234C4.76586 18.2976 4.66582 18.3167 4.57467 18.273C4.48183 18.2313 4.42969 18.1446 4.45979 18.0808C4.48734 18.0153 4.5876 17.997 4.68023 18.0409C4.77328 18.0827 4.82627 18.1702 4.79406 18.234ZM5.42368 18.7958C5.36263 18.8524 5.2433 18.8261 5.16233 18.7367C5.0786 18.6474 5.06292 18.5281 5.12481 18.4707C5.18776 18.4141 5.30349 18.4406 5.38743 18.5298C5.47116 18.6201 5.48748 18.7386 5.42368 18.7958ZM5.85562 19.5146C5.7772 19.5691 5.64896 19.518 5.56968 19.4042C5.49126 19.2904 5.49126 19.1539 5.57138 19.0992C5.65087 19.0445 5.7772 19.0937 5.85753 19.2066C5.93575 19.3224 5.93575 19.4589 5.85562 19.5146ZM6.58614 20.3471C6.51598 20.4245 6.36654 20.4037 6.25717 20.2982C6.14525 20.1949 6.11409 20.0485 6.18446 19.9711C6.25547 19.8935 6.40575 19.9153 6.51598 20.0201C6.62705 20.1231 6.66096 20.2706 6.58614 20.3471ZM7.53025 20.6282C7.4993 20.7284 7.35538 20.774 7.2104 20.7314C7.06563 20.6875 6.97088 20.5701 7.00013 20.4688C7.03023 20.3679 7.17479 20.3204 7.32083 20.366C7.46539 20.4096 7.56035 20.5262 7.53025 20.6282ZM8.60469 20.7474C8.6083 20.8529 8.48536 20.9405 8.33317 20.9424C8.18013 20.9458 8.05634 20.8603 8.05465 20.7565C8.05465 20.6499 8.17483 20.5632 8.32787 20.5606C8.48006 20.5577 8.60469 20.6424 8.60469 20.7474ZM9.66022 20.7069C9.67844 20.8099 9.57267 20.9157 9.42154 20.9439C9.27296 20.971 9.13539 20.9074 9.11653 20.8053C9.09809 20.6997 9.20576 20.5939 9.35414 20.5666C9.50548 20.5403 9.64093 20.6022 9.66022 20.7069Z" fill="#00052F"/>
</g>
<defs>
<clipPath id="clip0_32_131">
<rect width="25.6" height="25" fill="white"/>
</clipPath>
</defs>
</svg>
