<svg width="30" height="25" viewBox="0 0 30 25" fill="none" xmlns="http://www.w3.org/2000/svg">
<g clip-path="url(#clip0_32_138)">
<path d="M21.3369 21.1265H17.6264V15.3731C17.6264 14.0011 17.6017 12.2349 15.6966 12.2349C13.7641 12.2349 13.4685 13.7298 13.4685 15.2732V21.1261H9.75801V9.2947H13.32V10.9116H13.3699C13.7264 10.3081 14.2415 9.81163 14.8604 9.47507C15.4793 9.13852 16.1788 8.97447 16.8844 9.0004C20.645 9.0004 21.3384 11.4497 21.3384 14.636L21.3369 21.1265ZM5.57143 7.67742C5.14556 7.6775 4.72923 7.55253 4.3751 7.31833C4.02096 7.08413 3.74494 6.7512 3.5819 6.36166C3.41886 5.97211 3.37613 5.54345 3.45913 5.12987C3.54214 4.71628 3.74715 4.33636 4.04823 4.03814C4.34931 3.73992 4.73294 3.5368 5.1506 3.45446C5.56827 3.37213 6.0012 3.41427 6.39468 3.57557C6.78816 3.73686 7.12449 4.01007 7.36115 4.36063C7.59781 4.71119 7.72417 5.12337 7.72425 5.54504C7.7243 5.82502 7.66865 6.10227 7.56049 6.36095C7.45233 6.61964 7.29378 6.85469 7.09387 7.0527C6.89396 7.25071 6.65661 7.4078 6.39539 7.51499C6.13417 7.62218 5.85419 7.67737 5.57143 7.67742ZM7.42664 21.1265H3.71235V9.2947H7.42664V21.1265ZM23.1867 0.00168928H1.84787C1.36354 -0.00372256 0.896831 0.181478 0.550337 0.516594C0.203843 0.85171 0.00591099 1.30932 0 1.78888V23.0052C0.00570868 23.485 0.203525 23.9429 0.550007 24.2783C0.896489 24.6138 1.3633 24.7994 1.84787 24.7943H23.1867C23.6722 24.8003 24.1403 24.6153 24.4882 24.2798C24.836 23.9444 25.0352 23.4859 25.0419 23.0052V1.78735C25.035 1.30684 24.8357 0.848708 24.4878 0.5136C24.14 0.178492 23.672 -0.00617942 23.1867 0.00015788" fill="#00052F"/>
</g>
<defs>
<clipPath id="clip0_32_138">
<rect width="29.6154" height="25" fill="white"/>
</clipPath>
</defs>
</svg>
