<svg width="36" height="25" viewBox="0 0 36 25" fill="none" xmlns="http://www.w3.org/2000/svg">
<path d="M19.1954 12.5218C19.1954 16.0783 16.332 18.9613 12.8 18.9613C9.26795 18.9613 6.4043 16.0783 6.4043 12.5218C6.4043 8.96532 9.26773 6.08203 12.8 6.08203C16.3322 6.08203 19.1954 8.96532 19.1954 12.5218Z" fill="#00052F"/>
<path d="M26.2121 12.522C26.2121 15.8696 24.7804 18.5845 23.0142 18.5845C21.2481 18.5845 19.8164 15.8696 19.8164 12.522C19.8164 9.17436 21.2479 6.45947 23.014 6.45947C24.7802 6.45947 26.2119 9.17349 26.2119 12.522" fill="#00052F"/>
<path d="M29.0812 12.5219C29.0812 15.5206 28.5777 17.953 27.9565 17.953C27.3353 17.953 26.832 15.5212 26.832 12.5219C26.832 9.52257 27.3355 7.09082 27.9565 7.09082C28.5775 7.09082 29.0812 9.52235 29.0812 12.5219Z" fill="#00052F"/>
</svg>
